<svg xmlns="http://www.w3.org/2000/svg" style="display:none"><symbol id="home" viewBox="0 0 22 22"><path d="M12 2.5c-.3.0-.6.1-.8.3L3 9.6c-.6.5-1 1.4-1 2.4v7c0 1.7 1.3 3 3 3h14c1.7.0 3-1.3 3-3v-7c0-1-.4-1.9-1-2.4l-8.2-6.8c-.2-.2-.5-.3-.8-.3zm0 2 8 6.6V19c0 .6-.4 1-1 1h-4v-7H9v7H5c-.6.0-1-.4-1-1v-7.9l8-6.6z"/></symbol><symbol id="github" viewBox="0 0 496 512"><path d="M165.9 397.4c0 2-2.3 3.6-5.2 3.6-3.3.3-5.6-1.3-5.6-3.6.0-2 2.3-3.6 5.2-3.6 3-.3 5.6 1.3 5.6 3.6zm-31.1-4.5c-.7 2 1.3 4.3 4.3 4.9 2.6 1 5.6.0 6.2-2s-1.3-4.3-4.3-5.2c-2.6-.7-5.5.3-6.2 2.3zm44.2-1.7c-2.9.7-4.9 2.6-4.6 4.9.3 2 2.9 3.3 5.9 2.6 2.9-.7 4.9-2.6 4.6-4.6-.3-1.9-3-3.2-5.9-2.9zM244.8 8C106.1 8 0 113.3.0 252c0 110.9 69.8 205.8 169.5 239.2 12.8 2.3 17.3-5.6 17.3-12.1.0-6.2-.3-40.4-.3-61.4.0.0-70 15-84.7-29.8.0.0-11.4-29.1-27.8-36.6.0.0-22.9-15.7 1.6-15.4.0.0 24.9 2 38.6 25.8 21.9 38.6 58.6 27.5 72.9 20.9 2.3-16 8.8-27.1 16-33.7-55.9-6.2-112.3-14.3-112.3-110.5.0-27.5 7.6-41.3 23.6-58.9-2.6-6.5-11.1-33.3 2.6-67.9 20.9-6.5 69 27 69 27 20-5.6 41.5-8.5 62.8-8.5s42.8 2.9 62.8 8.5c0 0 48.1-33.6 69-27 13.7 34.7 5.2 61.4 2.6 67.9 16 17.7 25.8 31.5 25.8 58.9.0 96.5-58.9 104.2-114.8 110.5 9.2 7.9 17 22.9 17 46.4.0 33.7-.3 75.4-.3 83.6.0 6.5 4.6 14.4 17.3 12.1C428.2 457.8 496 362.9 496 252 496 113.3 383.5 8 244.8 8zM97.2 352.9c-1.3 1-1 3.3.7 5.2 1.6 1.6 3.9 2.3 5.2 1 1.3-1 1-3.3-.7-5.2-1.6-1.6-3.9-2.3-5.2-1zm-10.8-8.1c-.7 1.3.3 2.9 2.3 3.9 1.6 1 3.6.7 4.3-.7.7-1.3-.3-2.9-2.3-3.9-2-.6-3.6-.3-4.3.7zm32.4 35.6c-1.6 1.3-1 4.3 1.3 6.2 2.3 2.3 5.2 2.6 6.5 1 1.3-1.3.7-4.3-1.3-6.2-2.2-2.3-5.2-2.6-6.5-1zm-11.4-14.7c-1.6 1-1.6 3.6.0 5.9 1.6 2.3 4.3 3.3 5.6 2.3 1.6-1.3 1.6-3.9.0-6.2-1.4-2.3-4-3.3-5.6-2z"/></symbol><symbol id="arxiv" viewBox="0 0 17.732 24.269"><g id="tiny"><path d="M573.549 280.916l2.266 2.738 6.674-7.84c.353-.47.52-.717.353-1.117a1.218 1.218.0 00-1.061-.748h0a.953.953.0 00-.712.262z" transform="translate(-566.984 -271.548)"/><path d="M579.525 282.225l-10.606-10.174a1.413 1.413.0 00-.834-.5 1.09 1.09.0 00-1.027.66c-.167.4-.047.681.319 1.206l8.44 10.242h0l-6.282 7.716a1.336 1.336.0 00-.323 1.3 1.114 1.114.0 001.04.69A.992.992.0 00571 293l8.519-7.92A1.924 1.924.0 00579.525 282.225z" transform="translate(-566.984 -271.548)"/><path d="M584.32 293.912l-8.525-10.275L573.53 280.9l-1.389 1.254a2.063 2.063.0 000 2.965l10.812 10.419a.925.925.0 00.742.282 1.039 1.039.0 00.953-.667A1.261 1.261.0 00584.32 293.912z" transform="translate(-566.984 -271.548)"/></g></symbol><symbol id="pdf" viewBox="0 0 512 512"><path d="M64 464h48v48H64c-35.3.0-64-28.7-64-64V64C0 28.7 28.7.0 64 0H229.5c17 0 33.3 6.7 45.3 18.7l90.5 90.5c12 12 18.7 28.3 18.7 45.3V304h-48V160h-80c-17.7.0-32-14.3-32-32V48H64c-8.8.0-16 7.2-16 16v384c0 8.8 7.2 16 16 16zM176 352h32c30.9.0 56 25.1 56 56s-25.1 56-56 56h-16v32c0 8.8-7.2 16-16 16s-16-7.2-16-16v-48-80c0-8.8 7.2-16 16-16zm32 80c13.3.0 24-10.7 24-24s-10.7-24-24-24h-16v48h16zm96-80h32c26.5.0 48 21.5 48 48v64c0 26.5-21.5 48-48 48h-32c-8.8.0-16-7.2-16-16V368c0-8.8 7.2-16 16-16zm32 128c8.8.0 16-7.2 16-16v-64c0-8.8-7.2-16-16-16h-16v96h16zm80-112c0-8.8 7.2-16 16-16h48c8.8.0 16 7.2 16 16s-7.2 16-16 16h-32v32h32c8.8.0 16 7.2 16 16s-7.2 16-16 16h-32v48c0 8.8-7.2 16-16 16s-16-7.2-16-16v-64-64z"/></symbol><symbol id="md" viewBox="0 0 512 512"><path d="M64 464h48v48H64c-35.3.0-64-28.7-64-64V64C0 28.7 28.7.0 64 0H229.5c17 0 33.3 6.7 45.3 18.7l90.5 90.5c12 12 18.7 28.3 18.7 45.3V304h-48V160h-80c-17.7.0-32-14.3-32-32V48H64c-8.8.0-16 7.2-16 16v384c0 8.8 7.2 16 16 16zm96-112c-8.8.0-16 7.2-16 16v128c0 8.8 7.2 16 16 16s16-7.2 16-16v-73.4l20 26.7c2.8 3.7 7.2 5.9 11.8 5.9s9-2.2 11.8-5.9l20-26.7V496c0 8.8 7.2 16 16 16s16-7.2 16-16V368c0-6.3-3.7-12-9.4-14.6s-12.3-.9-16.2 4l-37.4 49.8-37.4-49.8c-3.9-5.2-10.5-6.6-16.2-4s-9.4 8.3-9.4 14.6zm160 0c-8.8.0-16 7.2-16 16v128c0 8.8 7.2 16 16 16h32c26.5.0 48-21.5 48-48v-64c0-26.5-21.5-48-48-48h-32zm32 128h-16v-96h16c8.8.0 16 7.2 16 16v64c0 8.8-7.2 16-16 16z"/></symbol><symbol id="sun" viewBox="0 0 20 20"><path d="M17.293 13.293A8 8 0 016.707 2.707a8.001 8.001.0 1010.586 10.586z"/></symbol><symbol id="moon" viewBox="0 0 20 20"><path d="M10 2a1 1 0 011 1v1A1 1 0 119 4V3a1 1 0 011-1zm4 8a4 4 0 11-8 0 4 4 0 018 0zm-.464 4.95.707.707a1 1 0 001.414-1.414l-.707-.707a1 1 0 00-1.414 1.414zm2.12-10.607a1 1 0 010 1.414l-.706.707A1 1 0 1113.536 5.05l.707-.707a1 1 0 011.414.0zM17 11a1 1 0 100-2h-1a1 1 0 100 2h1zm-7 4a1 1 0 011 1v1a1 1 0 11-2 0v-1a1 1 0 011-1zM5.05 6.464A1 1 0 106.465 5.05l-.708-.707A1 1 0 004.343 5.757l.707.707zm1.414 8.486-.707.707a1 1 0 01-1.414-1.414l.707-.707a1 1 0 011.414 1.414zM4 11a1 1 0 100-2H3a1 1 0 000 2h1z" fill-rule="evenodd" clip-rule="evenodd"/></symbol><symbol id="system-theme" viewBox="0 0 640 512"><path d="M128 32C92.7 32 64 60.7 64 96v256h64V96h384v256h64V96c0-35.3-28.7-64-64-64H128zM19.2 384C8.6 384 0 392.6.0 403.2.0 445.6 34.4 480 76.8 480h486.4c42.4.0 76.8-34.4 76.8-76.8.0-10.6-8.6-19.2-19.2-19.2H19.2z"/></symbol></svg>